:version 1.10
:name ASF
:units
  mass 1
  length 1
  angle deg
:documentation
  ASF file generated by Kaydara
:root
  axis xyz
  order  tx ty tz rx ry rz
  position 0 0 0
  orientation 0 0 0
:bonedata
  begin
    id 1
    name LeftUpLegDummy
    direction 1 -2.30186e-007 -8.31532e-007
    length 2.93387
    axis 0 0 0 xyz
  end
  begin
    id 2
    name LeftUpLeg
    direction -1.82929e-007 -1 -1.48925e-009
    length 17.3336
    axis -3.48766 0.00143442 -0.000521554 xyz
    dof rx ry rz
  end
  begin
    id 3
    name LeftLeg
    direction -1.82929e-007 -1 -5.23717e-011
    length 14.9995
    axis 3.68178 -0.00654042 -0.000282425 xyz
    dof rx ry rz
  end
  begin
    id 4
    name LeftFoot
    direction 8.31532e-007 -4.54534e-011 1
    length 6.74421
    axis 1.87234e-006 4.66016e-005 -5.96866e-006 xyz
    dof rx ry rz
  end
  begin
    id 5
    name LeftToes
    direction 0.00818058 -0.00485161 0.999955
    length 3.85048
    axis 1.06247e-005 4.65869e-005 -5.96999e-006 xyz
    dof rx ry rz
  end
  begin
    id 6
    name SpineDummy
    direction -5.8607e-008 0.943407 -0.331637
    length 5.93572
    axis 0 0 0 xyz
  end
  begin
    id 7
    name Spine
    direction -1.04988e-007 0.999988 0.00495137
    length 10.1015
    axis -0.001389 0.000121417 6.61666e-006 xyz
    dof rx ry rz
  end
  begin
    id 8
    name Spine1
    direction 0 0 0
    length 0
    axis -0.001389 0.00012144 6.56766e-006 xyz
    dof rx ry rz
  end
  begin
    id 9
    name RightShoulderDummy
    direction -0.98348 0.17941 -0.0240696
    length 3.59882
    axis -0.001389 0.00012144 6.56766e-006 xyz
  end
  begin
    id 10
    name RightShoulder
    direction -0.978693 0.204882 0.0135597
    length 2.70001
    axis 0.215806 0.000203631 -0.00679732 xyz
    dof rx ry rz
  end
  begin
    id 11
    name RightArm
    direction -1 3.85509e-006 8.31394e-007
    length 10.2459
    axis -23.2009 -0.134239 -0.964098 xyz
    dof rx ry rz
  end
  begin
    id 12
    name RightForeArm
    direction -1 3.85569e-006 8.3129e-007
    length 8.16799
    axis -9.92322 0.0658061 0.17887 xyz
    dof rx ry rz
  end
  begin
    id 13
    name RightHand
    direction -0.992843 -0.0414604 0.112003
    length 5.28593
    axis -0.00960638 0.00330669 -0.185225 xyz
    dof rx ry rz
  end
  begin
    id 14
    name LeftShoulder1Dummy
    direction 0.983523 0.179172 -0.0240748
    length 3.59866
    axis -0.001389 0.00012144 6.56766e-006 xyz
  end
  begin
    id 15
    name LeftShoulder1
    direction 0.978627 0.205195 0.0135605
    length 2.70019
    axis -0.001389 0.00012144 6.57583e-006 xyz
    dof rx ry rz
  end
  begin
    id 16
    name LeftArm
    direction 1 3.51895e-006 -8.60188e-007
    length 10.2459
    axis -23.1894 0.134785 0.967513 xyz
    dof rx ry rz
  end
  begin
    id 17
    name LeftForeArm
    direction 1 3.51921e-006 -7.32029e-007
    length 8.16799
    axis -9.91835 -0.0656957 -0.177789 xyz
    dof rx ry rz
  end
  begin
    id 18
    name LeftHand
    direction 0.992938 -0.0411636 0.11126
    length 5.32135
    axis -0.00960237 -0.00340661 0.185177 xyz
    dof rx ry rz
  end
  begin
    id 19
    name HEadDummy
    direction 1.01974e-006 0.999861 -0.016675
    length 2.99946
    axis -0.001389 0.00012144 6.56766e-006 xyz
  end
  begin
    id 20
    name HEad
    direction -0.0222689 0.980941 0.193023
    length 5.12695
    axis -0.001389 0.00012144 6.56766e-006 xyz
    dof rx ry rz
  end
  begin
    id 21
    name RightUpLegDummy
    direction -1 2.30186e-007 8.31532e-007
    length 2.93387
    axis 0 0 0 xyz
  end
  begin
    id 22
    name RightUpLeg
    direction -1.82966e-007 -1 1.56832e-007
    length 17.3336
    axis -3.4909 -0.000906625 0.00028951 xyz
    dof rx ry rz
  end
  begin
    id 23
    name RightLeg
    direction -1.82786e-007 -1 -1.80317e-007
    length 14.9995
    axis 3.68513 0.0193739 -0.131021 xyz
    dof rx ry rz
  end
  begin
    id 24
    name RightFoot
    direction 8.31721e-007 -4.63324e-011 1
    length 6.74421
    axis 4.81691e-005 -0.120479 -0.188785 xyz
    dof rx ry rz
  end
  begin
    id 25
    name RightToes
    direction 0.00124746 -0.014064 0.9999
    length 3.85082
    axis 0.000481921 0.542163 -0.142575 xyz
    dof rx ry rz
  end
:hierarchy
  begin
    root LeftUpLegDummy SpineDummy RightUpLegDummy
    LeftUpLegDummy LeftUpLeg
    LeftUpLeg LeftLeg
    LeftLeg LeftFoot
    LeftFoot LeftToes
    SpineDummy Spine
    Spine Spine1
    Spine1 RightShoulderDummy LeftShoulder1Dummy HEadDummy
    RightShoulderDummy RightShoulder
    RightShoulder RightArm
    RightArm RightForeArm
    RightForeArm RightHand
    LeftShoulder1Dummy LeftShoulder1
    LeftShoulder1 LeftArm
    LeftArm LeftForeArm
    LeftForeArm LeftHand
    HEadDummy HEad
    RightUpLegDummy RightUpLeg
    RightUpLeg RightLeg
    RightLeg RightFoot
    RightFoot RightToes
  end

:SAMPLES-PER-SECOND 30
:FULLY-SPECIFIED
:DEGREES
1
root  -12.559 33.4726 -30.1102 2.28939 25.0987 -3.53632
LeftUpLeg  -10.0117 8.24737 10.782
LeftLeg  24.5077 9.41269 3.55684
LeftFoot  -4.32708 -0.0219918 -0.816866
LeftToes  -23.8273 1.92152e-006 4.03786e-008
Spine  1.56908 0.965308 1.49458
Spine1  2.99091 1.82144 3.00048
RightShoulder  0.0852193 4.92458 7.42232
RightArm  -36.7391 -21.2109 72.5136
RightForeArm  35.6685 13.5961 2.43571
RightHand  0.969965 -11.824 -9.04369
LeftShoulder1  0.0210711 1.77543 -10.7633
LeftArm  -18.1441 17.9964 -70.7007
LeftForeArm  30.5636 -13.2132 -2.36733
LeftHand  0.0832519 3.6559 2.38001
HEad  -4.92962 -12.8521 -1.76583
RightUpLeg  -8.76396 -7.59731 6.39601
RightLeg  15.9142 3.70485 0.802958
RightFoot  -6.20521 -0.0389383 -0.402786
RightToes  -16.0199 -0.0548247 -0.141406
2
root  -12.5709 33.4739 -30.123 2.2419 25.0739 -3.56417
LeftUpLeg  -9.98369 8.47829 10.842
LeftLeg  24.4618 9.19985 3.46888
LeftFoot  -4.30744 -0.023362 -0.795571
LeftToes  -23.9165 1.92152e-006 4.03786e-008
Spine  1.50394 0.965309 1.48748
Spine1  2.85725 1.83178 2.98438
RightShoulder  0.0851321 4.99916 7.29303
RightArm  -36.5308 -21.1311 72.4906
RightForeArm  35.6355 13.6455 2.44494
RightHand  0.969067 -11.7928 -8.98762
LeftShoulder1  0.0210711 1.63021 -10.718
LeftArm  -18.0141 17.9689 -70.4797
LeftForeArm  30.5068 -13.2598 -2.37602
LeftHand  0.0823598 3.6208 2.23951
HEad  -4.54805 -12.9647 -1.8714
RightUpLeg  -8.62346 -7.64877 6.42472
RightLeg  15.6329 3.77955 0.799812
RightFoot  -6.06875 -0.0390063 -0.40173
RightToes  -16.3655 -0.0548247 -0.141406
3
root  -12.5929 33.4779 -30.1435 2.18638 25.0223 -3.60492
LeftUpLeg  -9.92262 8.57654 10.9149
LeftLeg  24.3419 9.1189 3.41704
LeftFoot  -4.25419 -0.0244239 -0.779068
LeftToes  -23.9414 1.92152e-006 4.03786e-008
Spine  1.44529 0.965309 1.47343
Spine1  2.7336 1.84827 2.95522
RightShoulder  0.0850498 5.04316 7.15139
RightArm  -36.2764 -20.9187 72.4966
RightForeArm  35.525 13.7584 2.46608
RightHand  0.969234 -11.8033 -8.98089
LeftShoulder1  0.0210711 1.48308 -10.6668
LeftArm  -17.7192 17.7731 -70.2327
LeftForeArm  30.428 -13.351 -2.39299
LeftHand  0.0816805 3.65002 2.19248
HEad  -4.17438 -13.1057 -1.97179
RightUpLeg  -8.52061 -7.57184 6.48107
RightLeg  15.388 3.76043 0.779078
RightFoot  -5.9277 -0.0397485 -0.390201
RightToes  -16.4286 -0.0548247 -0.141406
4
root  -12.6171 33.4832 -30.1639 2.09919 24.9826 -3.6407
LeftUpLeg  -9.82304 8.65711 10.9875
LeftLeg  24.1995 9.03084 3.35897
LeftFoot  -4.21553 -0.0253926 -0.764013
LeftToes  -23.8478 1.92152e-006 4.03786e-008
Spine  1.39269 0.95648 1.45498
Spine1  2.62056 1.8334 2.91872
RightShoulder  0.0849696 5.06853 6.99825
RightArm  -35.8886 -20.6544 72.4943
RightForeArm  35.2984 13.9812 2.50789
RightHand  0.958151 -11.7614 -8.90746
LeftShoulder1  0.0210711 1.34707 -10.6339
LeftArm  -17.3809 17.4446 -69.9641
LeftForeArm  30.402 -13.4368 -2.40894
LeftHand  0.0818876 3.63832 2.20366
HEad  -3.8231 -13.2024 -2.06854
RightUpLeg  -8.4438 -7.54348 6.53178
RightLeg  15.2727 3.76018 0.771179
RightFoot  -5.83582 -0.0387919 -0.383543
RightToes  -16.3704 -0.0548247 -0.141406
5
root  -12.6443 33.4922 -30.1823 1.95212 25.0127 -3.66822
LeftUpLeg  -9.68316 8.76121 11.0638
LeftLeg  24.0527 8.85852 3.26984
LeftFoot  -4.16995 -0.0269394 -0.739974
LeftToes  -23.6617 1.92152e-006 4.03786e-008
Spine  1.37008 0.916546 1.44437
Spine1  2.56927 1.75521 2.90141
RightShoulder  0.0811039 5.09108 6.8059
RightArm  -35.3275 -20.3468 72.4718
RightForeArm  34.8298 14.3398 2.57542
RightHand  0.944711 -11.7241 -8.80704
LeftShoulder1  0.0210711 1.15318 -10.5875
LeftArm  -17.0556 16.9829 -69.7556
LeftForeArm  30.4127 -13.4866 -2.4182
LeftHand  0.0804539 3.61856 2.1724
HEad  -3.59708 -13.2591 -2.15581
RightUpLeg  -8.30033 -7.59413 6.57285
RightLeg  15.1416 3.76764 0.763774
RightFoot  -5.73039 -0.0365224 -0.376075
RightToes  -16.282 -0.0548247 -0.141406
6
root  -12.6804 33.5076 -30.2072 1.76907 25.0964 -3.66011
LeftUpLeg  -9.44258 8.69213 11.1085
LeftLeg  23.7307 8.80059 3.19293
LeftFoot  -4.01312 -0.0247025 -0.705071
LeftToes  -23.5741 1.92152e-006 4.03786e-008
Spine  1.38796 0.857286 1.42411
Spine1  2.59992 1.63544 2.8703
RightShoulder  0.075148 5.07933 6.52833
RightArm  -34.5552 -19.9941 72.5235
RightForeArm  34.1043 14.8524 2.67238
RightHand  0.9433 -11.8205 -8.71852
LeftShoulder1  0.0213399 1.02208 -10.4596
LeftArm  -16.4285 16.3083 -69.6314
LeftForeArm  30.1746 -13.5581 -2.43165
LeftHand  0.0692915 3.65673 1.79703
HEad  -3.51796 -13.4094 -2.20223
RightUpLeg  -8.09892 -7.64089 6.5862
RightLeg  14.9596 3.71525 0.74095
RightFoot  -5.58427 -0.0341794 -0.359535
RightToes  -16.2821 -0.0548247 -0.141406
7
root  -12.7176 33.5255 -30.2251 1.64301 25.1753 -3.6608
LeftUpLeg  -9.22798 8.78946 11.1798
LeftLeg  23.3487 8.58667 3.05175
LeftFoot  -3.84672 -0.0220793 -0.657484
LeftToes  -23.4147 1.92152e-006 4.03786e-008
Spine  1.36709 0.808662 1.39733
Spine1  2.55709 1.53668 2.82658
RightShoulder  0.0686825 5.11543 6.25487
RightArm  -34.1551 -19.7198 72.603
RightForeArm  33.6939 15.2984 2.75694
RightHand  0.928077 -11.7493 -8.62676
LeftShoulder1  0.0216957 0.72614 -10.2833
LeftArm  -15.9843 15.7594 -69.5393
LeftForeArm  29.9774 -13.7059 -2.45928
LeftHand  0.0672901 3.70732 2.01091
HEad  -3.4554 -13.5977 -2.12422
RightUpLeg  -7.91726 -7.68806 6.61972
RightLeg  14.7089 3.6776 0.716818
RightFoot  -5.4035 -0.0320272 -0.342825
RightToes  -16.2235 -0.0548247 -0.141406
8
root  -12.7566 33.548 -30.2348 1.57229 25.1348 -3.64155
LeftUpLeg  -8.85784 8.92772 11.2506
LeftLeg  22.6682 8.42782 2.88413
LeftFoot  -3.64289 -0.0193556 -0.608651
LeftToes  -23.4499 1.92152e-006 4.03786e-008
Spine  1.34728 0.784524 1.36274
Spine1  2.51795 1.48564 2.76843
RightShoulder  0.0622038 5.1098 6.00855
RightArm  -33.6077 -19.4322 72.6619
RightForeArm  33.2047 15.752 2.84336
RightHand  0.920385 -11.7316 -8.56599
LeftShoulder1  0.0221167 0.52942 -10.1254
LeftArm  -15.4499 15.1772 -69.4375
LeftForeArm  29.6284 -13.9252 -2.50038
LeftHand  0.0648391 3.66173 1.75937
HEad  -3.42366 -13.7464 -2.07574
RightUpLeg  -7.75955 -7.54511 6.65394
RightLeg  14.4281 3.56104 0.676129
RightFoot  -5.1866 -0.0314659 -0.317211
RightToes  -16.1432 -0.0548247 -0.141406
9
root  -12.8017 33.5713 -30.2402 1.55365 25.1228 -3.59425
LeftUpLeg  -8.54407 8.92521 11.2985
LeftLeg  22.0364 8.38437 2.76707
LeftFoot  -3.47487 -0.0174147 -0.574115
LeftToes  -23.6516 1.92152e-006 4.03786e-008
Spine  1.31209 0.745991 1.3167
Spine1  2.45142 1.40521 2.68944
RightShoulder  0.0549702 5.14254 5.78165
RightArm  -33.276 -19.2177 72.7286
RightForeArm  32.8816 16.1594 2.92124
RightHand  0.904461 -11.6462 -8.4765
LeftShoulder1  0.0225811 0.344024 -9.99968
LeftArm  -15.292 14.6239 -69.3151
LeftForeArm  29.1735 -14.1792 -2.54809
LeftHand  0.0644914 3.58936 1.68479
HEad  -3.43351 -13.8446 -2.07857
RightUpLeg  -7.63106 -7.52389 6.67765
RightLeg  14.1463 3.54784 0.655648
RightFoot  -5.00579 -0.03105 -0.303639
RightToes  -15.964 -0.0548247 -0.141406
